<svg width="80" height="16" viewBox="0 0 80 16" fill="none" xmlns="http://www.w3.org/2000/svg"><path d="M4.89338 6.72311L8.00092 3.61683L11.1097 6.72564L12.9169 4.91722L8.00092 0L3.08496 4.91596L4.89338 6.72311Z" fill="#F3BA2F"></path><path d="M-0.000488281 8L1.80727 6.19224L3.61502 8L1.80727 9.80776L-0.000488281 8Z" fill="#F3BA2F"></path><path d="M4.89346 9.27665L8.00101 12.3842L11.1098 9.27539L12.9182 11.0813L12.917 11.0825L8.00101 15.9998L3.08505 11.0851L3.08252 11.0825L4.89346 9.27665Z" fill="#F3BA2F"></path><path d="M12.3838 8.00195L14.1915 6.1942L15.9993 8.00195L14.1915 9.80971L12.3838 8.00195Z" fill="#F3BA2F"></path><path d="M9.83446 7.99902L8.00077 6.16406L6.64477 7.52006L6.48807 7.6755L6.16708 7.99649L6.16455 7.99902L6.16708 8.00281L8.00077 9.83524L9.83446 8.00028L9.83573 7.99902H9.83446Z" fill="#F3BA2F"></path><path d="M18.8198 3.87891H22.7526C23.7282 3.87891 24.4662 4.13165 24.9667 4.63715C25.1552 4.82388 25.3039 5.04697 25.4036 5.29288C25.5033 5.53879 25.552 5.8024 25.5467 6.06771V6.09172C25.5501 6.30906 25.5199 6.52562 25.457 6.7337C25.401 6.91283 25.3197 7.08305 25.2156 7.2392C25.1186 7.38645 25.0011 7.5192 24.8668 7.63349C24.7356 7.74643 24.5919 7.84396 24.4384 7.92415C24.8809 8.07828 25.2788 8.33864 25.5973 8.68239C25.8787 9.00254 26.0194 9.44485 26.0194 10.0093V10.0333C26.0274 10.3859 25.9507 10.7352 25.7957 11.0519C25.6455 11.3438 25.4254 11.5938 25.155 11.7798C24.8492 11.9848 24.5088 12.1325 24.1503 12.2158C23.7243 12.3168 23.2877 12.3656 22.8499 12.3612H18.8198V3.87891ZM22.3583 7.30871C22.6986 7.32515 23.0372 7.25194 23.3402 7.0964C23.4584 7.02736 23.5549 6.92661 23.6188 6.80556C23.6827 6.6845 23.7114 6.54798 23.7017 6.41145V6.38744C23.7079 6.26164 23.6824 6.13629 23.6274 6.02298C23.5724 5.90967 23.4897 5.81205 23.387 5.73914C23.1772 5.59001 22.8743 5.51545 22.4784 5.51545H20.6384V7.30871H22.3583ZM22.855 10.7271C23.1939 10.7461 23.5314 10.6686 23.828 10.5034C23.9436 10.4292 24.0372 10.3253 24.099 10.2026C24.1607 10.0799 24.1885 9.94293 24.1794 9.80586V9.78185C24.1839 9.65157 24.1565 9.52216 24.0994 9.40495C24.0423 9.28774 23.9574 9.18631 23.8521 9.10954C23.6347 8.94104 23.2834 8.85679 22.7981 8.85679H20.6384V10.7271H22.855Z" fill="#F3BA2F"></path><path d="M28.3623 3.87891H30.2289V12.3637H28.3623V3.87891Z" fill="#F3BA2F"></path><path d="M33.0532 3.87891H34.7744L38.7527 9.10069V3.87891H40.5952V12.3637H39.0067L34.8983 6.97002V12.3637H33.0532V3.87891Z" fill="#F3BA2F"></path><path d="M46.2469 3.81836H47.9656L51.6014 12.3638H49.6527L48.8768 10.4606H45.289L44.5131 12.3638H42.6099L46.2469 3.81836ZM48.2108 8.81267L47.081 6.06024L45.9563 8.81267H48.2108Z" fill="#F3BA2F"></path><path d="M53.6196 3.87891H55.3408L59.3166 9.10069V3.87891H61.1591V12.3637H59.5706L55.4622 6.97002V12.3637H53.6196V3.87891Z" fill="#F3BA2F"></path><path d="M67.8769 12.5121C67.282 12.5172 66.6923 12.402 66.1431 12.1734C65.626 11.9599 65.1569 11.6451 64.7634 11.2475C64.3699 10.8499 64.06 10.3775 63.8519 9.85826C63.6323 9.31511 63.5211 8.73426 63.5246 8.14842V8.1244C63.5148 6.96963 63.9591 5.85724 64.7618 5.02697C65.1567 4.6214 65.6295 4.29987 66.1519 4.08169C66.7201 3.84633 67.3302 3.72895 67.9451 3.73669C68.3089 3.73397 68.672 3.76656 69.0294 3.834C69.3352 3.89183 69.6342 3.98119 69.9216 4.10064C70.1824 4.21042 70.4304 4.34858 70.6609 4.51263C70.8859 4.67262 71.0973 4.851 71.2928 5.04592L70.1061 6.41582C69.8029 6.13608 69.4627 5.89924 69.0952 5.71192C68.734 5.53924 68.3378 5.45273 67.9376 5.45917C67.6045 5.45562 67.2745 5.52297 66.9694 5.65675C66.6644 5.79053 66.3913 5.98768 66.1683 6.23511C65.9472 6.4819 65.7741 6.76776 65.6578 7.07802C65.536 7.40591 65.4748 7.75317 65.4771 8.10292V8.12693C65.4759 8.47618 65.5371 8.82283 65.6578 9.15056C65.7726 9.46194 65.944 9.74942 66.1633 9.99854C66.3845 10.249 66.6569 10.4491 66.9622 10.5851C67.2674 10.7212 67.5983 10.7901 67.9325 10.7871C68.3581 10.8005 68.7804 10.7089 69.1621 10.5205C69.5256 10.3224 69.8617 10.0777 70.1618 9.79255L71.3497 10.9931C71.1399 11.2208 70.9131 11.432 70.671 11.625C70.4333 11.813 70.1751 11.9736 69.9014 12.1039C69.6098 12.2412 69.3025 12.3426 68.9865 12.406C68.6212 12.4792 68.2494 12.5148 67.8769 12.5121Z" fill="#F3BA2F"></path><path d="M73.5527 3.87891H79.9384V5.53946H75.389V7.26068H79.395V8.92124H75.3953V10.7031H80.0016V12.3637H73.5565L73.5527 3.87891Z" fill="#F3BA2F"></path></svg>