<svg width="62" height="24" viewBox="0 0 62 24"  fill="currentColor" xmlns="http://www.w3.org/2000/svg"><g clip-path="url(#clip0_2269_68442)"><path d="M43.5415 17.5453V1.76367H46.6972V17.5453H43.5415Z" fill="#F7A600"></path><path d="M6.76494 22.2347H0V6.45312H6.49319C9.64885 6.45312 11.4872 8.18256 11.4872 10.8861C11.4872 12.6367 10.3061 13.7683 9.48875 14.1452C10.4648 14.5878 11.7133 15.5852 11.7133 17.6916C11.7133 20.6387 9.64885 22.2347 6.76494 22.2347ZM6.24321 9.20186H3.15566V12.8372H6.24251C7.58159 12.8372 8.33083 12.1059 8.33083 11.0188C8.33083 9.93387 7.58229 9.20186 6.24321 9.20186ZM6.44685 15.6078H3.15636V19.4874H6.44825C7.87862 19.4874 8.55834 18.6008 8.55834 17.5363C8.55834 16.4725 7.87722 15.6078 6.44825 15.6078H6.44685ZM21.3383 15.7631V22.2347H18.2051V15.7631L13.3466 6.45312H16.7747L19.7942 12.8146L22.7679 6.45312H26.1954L21.3383 15.7631ZM35.142 22.2347H28.3771V6.45312H34.8696C38.0252 6.45312 39.8643 8.18256 39.8643 10.8861C39.8643 12.6367 38.6832 13.7683 37.8658 14.1452C38.8419 14.5878 40.0904 15.5852 40.0904 17.6916C40.0904 20.6387 38.0259 22.2347 35.142 22.2347ZM34.6203 9.20186H31.5327V12.8372H34.6203C35.9594 12.8372 36.7086 12.1059 36.7086 11.0188C36.7086 9.93387 35.9594 9.20186 34.6203 9.20186ZM34.8239 15.6078H31.532V19.4874H34.8239C36.255 19.4874 36.9347 18.6008 36.9347 17.5363C36.9347 16.4725 36.255 15.6078 34.8239 15.6078ZM56.8679 9.20257V22.2361H53.7122V9.20186H49.4907V6.45312H61.0909V9.20186L56.8679 9.20257Z" fill="currentColor"></path></g><defs><clipPath id="clip0_2269_68442"><rect width="61.0909" height="24" fill="currentColor"></rect></clipPath></defs></svg>