<svg width="90" height="16" viewBox="0 0 90 16" fill="currentColor" xmlns="http://www.w3.org/2000/svg"><g clip-path="url(#clip0_2324_59323)"><path d="M15.2368 7.73839V7.70839C15.2218 3.46393 11.8029 0 7.61839 0C3.43393 0 0 3.46393 0 7.73839C0 12.0134 3.41839 15.4704 7.61839 15.4704C9.54564 15.4717 11.3992 14.7299 12.7934 13.3993C12.9307 13.2738 13.0126 13.099 13.021 12.9131C13.0293 12.7273 12.9636 12.5458 12.8381 12.4085C12.7127 12.2712 12.5378 12.1893 12.352 12.1809C12.1662 12.1725 11.9846 12.2383 11.8473 12.3638L11.8323 12.3788C11.2308 12.9506 10.5198 13.3951 9.74222 13.6853C8.96462 13.9756 8.13638 14.1058 7.30722 14.068C6.47806 14.0302 5.66508 13.8253 4.9171 13.4655C4.16911 13.1057 3.50154 12.5985 2.95446 11.9743L6.20893 6.75536V9.17036C6.20893 10.3243 6.65893 10.6998 7.03714 10.8048C7.41536 10.9098 7.98268 10.8338 8.59714 9.85929L10.3827 6.96C10.4304 6.87536 10.4855 6.795 10.5466 6.71946V8.19C10.5466 9.26947 10.9816 10.1395 11.7311 10.5589C12.077 10.7473 12.4676 10.8385 12.8612 10.8227C13.2548 10.807 13.6368 10.6849 13.9666 10.4695C14.8323 9.9075 15.2973 8.92339 15.2368 7.73839ZM13.2568 9.25714C13.1366 9.33996 12.9964 9.38914 12.8508 9.3996C12.7052 9.41005 12.5594 9.3814 12.4286 9.31661C12.1286 9.13714 11.948 8.73268 11.948 8.17768V6.47786C11.948 5.66893 11.633 5.08339 11.0936 4.93446C10.178 4.65804 9.48911 5.78893 9.23357 6.20893L7.61839 8.80286V5.60893C7.60339 4.87446 7.36286 4.43946 6.91286 4.30393C6.61286 4.21446 6.16286 4.26 5.72839 4.92L2.11393 10.7084C1.63308 9.79215 1.38109 8.77315 1.37946 7.73839C1.37946 4.24393 4.18339 1.40946 7.61839 1.40946C11.0534 1.40946 13.8573 4.24393 13.8573 7.73839V7.76893C13.8932 8.44286 13.6768 8.98393 13.2573 9.25286L13.2568 9.25714ZM25.8552 5.09893C25.9545 5.16258 26.0376 5.24868 26.0976 5.35029C26.1576 5.4519 26.1929 5.56618 26.2007 5.68393C26.1997 5.85607 26.1318 6.0211 26.0115 6.14421C25.8912 6.26733 25.7278 6.33893 25.5557 6.34393C25.4741 6.33771 25.3934 6.32244 25.3152 6.29839C24.895 5.98322 24.3854 5.8102 23.8602 5.80446C22.5857 5.80446 21.7162 6.83839 21.7162 8.12786C21.7162 9.41732 22.6013 10.4379 23.8602 10.4379C24.4653 10.437 25.0463 10.2002 25.4796 9.77786C25.59 9.70018 25.7207 9.65839 25.8552 9.65786C25.9628 9.65666 26.0688 9.68408 26.1624 9.73731C26.2559 9.79054 26.3337 9.86767 26.3876 9.96081C26.4416 10.0539 26.4698 10.1597 26.4694 10.2674C26.4691 10.375 26.4401 10.4806 26.3855 10.5734C26.3336 10.6645 26.2596 10.7421 26.1702 10.7984C25.7311 11.1635 25.2107 11.4176 24.6528 11.5393C24.0949 11.6611 23.5159 11.6469 22.9647 11.4979C22.4134 11.3489 21.9061 11.0696 21.4854 10.6834C21.0648 10.2973 20.7432 9.81561 20.5478 9.27907C20.3523 8.74254 20.2888 8.16688 20.3625 7.60064C20.4362 7.0344 20.645 6.49419 20.9713 6.02557C21.2976 5.55696 21.7318 5.17369 22.2373 4.90808C22.7428 4.64248 23.3047 4.50233 23.8757 4.49946C24.5818 4.48875 25.2739 4.69768 25.8552 5.09893ZM29.4241 6.59411C28.7513 6.59125 28.1048 6.85524 27.6263 7.32821C27.1479 7.80117 26.8764 8.44455 26.8714 9.11732C26.8756 9.79383 27.1451 10.4417 27.6219 10.9216C28.0988 11.4014 28.745 11.675 29.4214 11.6834C30.7414 11.6834 31.8664 10.4984 31.8664 9.11732C31.8664 7.73732 30.7591 6.59411 29.4241 6.59411ZM29.4091 10.4336C28.7796 10.4336 28.2546 9.86357 28.2546 9.12857C28.2546 8.36411 28.7796 7.89857 29.4091 7.89857C29.9946 7.89857 30.4886 8.37911 30.4886 9.12857C30.4886 9.87857 29.9946 10.4379 29.4091 10.4379V10.4336ZM32.7086 10.9029V7.36286C32.7069 7.27107 32.7235 7.17987 32.7574 7.09457C32.7913 7.00927 32.8419 6.93159 32.9062 6.86605C32.9705 6.80052 33.0472 6.74845 33.1318 6.71289C33.2164 6.67733 33.3073 6.65898 33.3991 6.65893C33.5838 6.66133 33.7601 6.73669 33.8895 6.86856C34.0188 7.00044 34.0908 7.17813 34.0896 7.36286V10.9029C34.0909 11.0877 34.019 11.2655 33.8897 11.3975C33.7603 11.5295 33.5839 11.6049 33.3991 11.6073C33.2153 11.6019 33.0407 11.5255 32.9119 11.3942C32.7832 11.2629 32.7103 11.0868 32.7086 10.9029ZM32.6036 5.32393C32.6006 5.21707 32.6189 5.11068 32.6574 5.01095C32.6959 4.91123 32.7538 4.82015 32.8279 4.74303C32.9019 4.66591 32.9905 4.60428 33.0886 4.56173C33.1867 4.51918 33.2922 4.49656 33.3991 4.49518C33.5067 4.49644 33.6129 4.51888 33.7118 4.56121C33.8106 4.60355 33.9002 4.66496 33.9753 4.74192C34.0504 4.81889 34.1097 4.90991 34.1496 5.00977C34.1895 5.10963 34.2094 5.21639 34.208 5.32393C34.208 5.53662 34.1235 5.74061 33.9731 5.891C33.8227 6.0414 33.6188 6.12589 33.4061 6.12589C33.1934 6.12589 32.9894 6.0414 32.839 5.891C32.6886 5.74061 32.6036 5.53662 32.6036 5.32393ZM36.728 8.98393V10.9029C36.728 11.086 36.6553 11.2616 36.5258 11.3911C36.3963 11.5206 36.2206 11.5934 36.0375 11.5934C35.8544 11.5934 35.6787 11.5206 35.5492 11.3911C35.4197 11.2616 35.347 11.086 35.347 10.9029V7.19839C35.347 7.05717 35.4031 6.92172 35.5029 6.82186C35.6028 6.722 35.7382 6.66589 35.8795 6.66589C36.0207 6.66589 36.1561 6.722 36.256 6.82186C36.3559 6.92172 36.412 7.05717 36.412 7.19839C36.6088 6.9973 36.8457 6.83993 37.1074 6.73655C37.3691 6.63317 37.6496 6.58609 37.9307 6.59839C39.3112 6.59839 39.9257 7.63339 39.9257 8.81839V10.9029C39.9257 11.086 39.853 11.2616 39.7235 11.3911C39.594 11.5206 39.4183 11.5934 39.2352 11.5934C39.052 11.5934 38.8764 11.5206 38.7469 11.3911C38.6174 11.2616 38.5446 11.086 38.5446 10.9029V8.98393C38.5446 8.38339 38.4702 7.87929 37.6002 7.87929C36.9862 7.87929 36.7307 8.38875 36.7307 8.98393H36.728ZM44.392 9.71839C44.3219 9.71856 44.2527 9.70226 44.1901 9.67081C44.1275 9.63936 44.0731 9.59364 44.0314 9.53732L42.427 7.79786V10.9029C42.4295 10.9951 42.4136 11.087 42.38 11.173C42.3465 11.259 42.2961 11.3374 42.2317 11.4035C42.1674 11.4697 42.0904 11.5223 42.0054 11.5582C41.9204 11.5941 41.829 11.6126 41.7367 11.6126C41.6444 11.6126 41.553 11.5941 41.468 11.5582C41.383 11.5223 41.306 11.4697 41.2417 11.4035C41.1773 11.3374 41.1269 11.259 41.0933 11.173C41.0598 11.087 41.0439 10.9951 41.0464 10.9029V4.75339C41.0677 4.70239 41.103 4.65847 41.1482 4.62671C41.1935 4.59495 41.2468 4.57665 41.302 4.57393C41.4209 4.59411 41.5279 4.65815 41.602 4.75339L44.167 7.63339C44.1931 7.6705 44.2266 7.7019 44.2652 7.72566C44.3039 7.74942 44.347 7.76506 44.392 7.77161C44.4812 7.75429 44.5612 7.70518 44.617 7.63339L47.1809 4.75339C47.2164 4.7051 47.2612 4.66436 47.3126 4.63355C47.364 4.60274 47.421 4.58247 47.4804 4.57393C47.5365 4.57254 47.5917 4.58923 47.6377 4.62153C47.6837 4.65384 47.7181 4.70006 47.7359 4.75339V10.9034C47.7376 10.9952 47.721 11.0864 47.6871 11.1717C47.6531 11.257 47.6026 11.3347 47.5383 11.4002C47.474 11.4657 47.3973 11.5178 47.3127 11.5534C47.228 11.5889 47.1372 11.6073 47.0454 11.6073C46.8607 11.6046 46.6845 11.5291 46.5553 11.3972C46.4261 11.2652 46.3542 11.0875 46.3554 10.9029V7.79786L44.7493 9.53732C44.6566 9.64062 44.5285 9.70527 44.3904 9.71839H44.392ZM57.3643 7.87393H57.2138C56.3443 7.91786 56.1798 8.41393 56.1798 8.97857V10.8975C56.1797 11.0806 56.1069 11.2562 55.9774 11.3856C55.8479 11.5151 55.6724 11.5879 55.4893 11.588C55.3062 11.5878 55.1307 11.5148 55.0013 11.3852C54.8719 11.2557 54.7993 11.0801 54.7993 10.897V7.19893C54.7996 7.05765 54.8558 6.92223 54.9557 6.82233C55.0556 6.72243 55.191 6.66618 55.3323 6.66589C55.4736 6.66618 55.6089 6.72244 55.7087 6.82236C55.8085 6.92228 55.8647 7.0577 55.8648 7.19893C56.3743 6.71839 56.7943 6.61339 57.2138 6.59786H57.352C57.5202 6.60232 57.68 6.67219 57.7976 6.79262C57.9151 6.91306 57.9811 7.07457 57.9814 7.24286C57.9812 7.40731 57.9169 7.5652 57.8022 7.68303C57.6875 7.80085 57.5313 7.86933 57.367 7.87393H57.3643ZM62.6882 10.5729C62.7514 10.672 62.7879 10.7855 62.7932 10.9029C62.7857 11.0836 62.7105 11.2549 62.5826 11.3828C62.4547 11.5107 62.2834 11.5859 62.1027 11.5934C61.8637 11.5934 61.6527 11.4123 61.4882 11.2023L59.8993 9.35518V10.8873C59.8993 11.0704 59.8266 11.246 59.6971 11.3754C59.5677 11.5049 59.3921 11.5776 59.209 11.5776C59.0259 11.5776 58.8504 11.5049 58.7209 11.3754C58.5915 11.246 58.5187 11.0704 58.5187 10.8873V5.265C58.5184 5.12838 58.5587 4.99474 58.6345 4.88106C58.7103 4.76737 58.8181 4.67876 58.9443 4.62647C59.0705 4.57418 59.2095 4.56057 59.3434 4.58736C59.4774 4.61416 59.6004 4.68015 59.6968 4.77696C59.8264 4.90607 59.8993 5.08232 59.8993 5.26446V8.77339L61.4882 7.01946C61.6527 6.83893 61.8487 6.64446 62.0877 6.64446C62.2628 6.65218 62.4285 6.72622 62.551 6.85157C62.6736 6.97692 62.7439 7.14419 62.7477 7.31946C62.7482 7.43072 62.717 7.53982 62.6577 7.63393L61.3987 9.01446L62.6882 10.575V10.5729ZM71.0271 11.6679H70.6516C69.6021 11.6679 68.9866 11.2023 68.9866 9.56786V7.87393H68.6277C68.4585 7.87393 68.2962 7.80671 68.1765 7.68705C68.0569 7.5674 67.9896 7.40511 67.9896 7.23589C67.9896 7.06668 68.0569 6.90439 68.1765 6.78473C68.2962 6.66508 68.4585 6.59786 68.6277 6.59786H68.9812V5.29339C68.978 5.15502 69.0166 5.01889 69.092 4.90283C69.1674 4.78678 69.2761 4.69622 69.4039 4.64304C69.4886 4.60768 69.5796 4.58946 69.6712 4.58946C69.8557 4.59256 70.0316 4.66814 70.1608 4.79986C70.29 4.93159 70.3622 5.10887 70.3618 5.29339V6.59411H70.9307C71.0974 6.59915 71.2554 6.66958 71.3706 6.79017C71.4858 6.91077 71.5489 7.07183 71.5462 7.23857C71.5407 7.40152 71.4745 7.55653 71.3606 7.67324C71.2468 7.78996 71.0935 7.86 70.9307 7.86964H70.3618V9.29464C70.3618 10.2391 70.4057 10.4336 70.8257 10.4336H71.0218C71.1848 10.4343 71.3409 10.4995 71.4561 10.6149C71.5712 10.7303 71.636 10.8866 71.6362 11.0496C71.6326 11.2115 71.5666 11.3656 71.4522 11.4801C71.3378 11.5945 71.1836 11.6604 71.0218 11.6641L71.0271 11.6679ZM77.7 5.09893C77.7992 5.16274 77.882 5.24888 77.942 5.35047C78.0019 5.45205 78.0372 5.56626 78.045 5.68393C78.0441 5.85612 77.9763 6.02121 77.856 6.14436C77.7356 6.26751 77.5721 6.33907 77.4 6.34393C77.3186 6.33736 77.2381 6.3221 77.16 6.29839C76.7404 5.983 76.231 5.80995 75.7061 5.80446C74.4305 5.80446 73.5605 6.83839 73.5605 8.12786C73.5605 9.41732 74.4455 10.4379 75.7061 10.4379C76.3112 10.437 76.8922 10.2002 77.3255 9.77786C77.4354 9.70072 77.5661 9.65893 77.7 9.65786C77.781 9.65711 77.8614 9.67245 77.9364 9.70298C78.0114 9.73351 78.0797 9.77863 78.1371 9.83572C78.2325 9.93089 78.2935 10.0551 78.3106 10.1887C78.3276 10.3223 78.2998 10.4578 78.2314 10.5739C78.1789 10.6655 78.1043 10.7424 78.0145 10.7979C77.5756 11.1622 77.0556 11.4157 76.4982 11.5369C75.9408 11.6581 75.3625 11.6435 74.812 11.4943C73.9809 11.2696 73.2595 10.7512 72.7815 10.0353C72.3034 9.31937 72.1012 8.4544 72.2121 7.60071C72.3227 6.74688 72.7391 5.96209 73.3841 5.39183C74.0291 4.82157 74.859 4.50452 75.72 4.49946C76.4266 4.486 77.1195 4.69578 77.7 5.09893ZM53.0304 6.64393C52.9601 6.64391 52.8906 6.65794 52.8259 6.68522C52.7612 6.71249 52.7026 6.75244 52.6535 6.80272C52.6045 6.85299 52.5661 6.91258 52.5404 6.97796C52.5148 7.04334 52.5025 7.11319 52.5043 7.18339L52.4754 7.34946C52.2775 7.11513 52.032 6.92569 51.7551 6.79377C51.4783 6.66186 51.1764 6.5905 50.8698 6.58447C49.5209 6.58447 48.5464 7.72339 48.5464 9.10232C48.5464 10.4818 49.5054 11.6679 50.7954 11.6679C51.3354 11.6679 52.1898 11.4273 52.4604 10.9029L52.4909 11.0673C52.4895 11.1379 52.5026 11.2081 52.5294 11.2734C52.5562 11.3388 52.5961 11.3979 52.6467 11.4472C52.6972 11.4965 52.7574 11.5349 52.8234 11.5601C52.8894 11.5852 52.9598 11.5966 53.0304 11.5934C53.1013 11.5935 53.1716 11.5797 53.2372 11.5526C53.3027 11.5255 53.3623 11.4857 53.4125 11.4355C53.4627 11.3854 53.5024 11.3258 53.5295 11.2602C53.5566 11.1946 53.5705 11.1243 53.5704 11.0534V7.18768C53.5683 7.04475 53.5109 6.9082 53.4101 6.80677C53.3094 6.70535 53.1733 6.64697 53.0304 6.64393ZM51.0204 10.4379C50.4059 10.4379 49.9254 9.85393 49.9254 9.13286C49.9254 8.41232 50.4198 7.89 51.0204 7.89C51.6204 7.89 52.1609 8.38447 52.1609 9.13286C52.1609 9.88125 51.6354 10.4379 51.0204 10.4379ZM67.7277 9.01286C67.6971 7.46786 66.6921 6.59786 65.3582 6.59786C63.7018 6.59786 63.0027 7.79786 63.0027 9.17839C63.0027 10.9334 64.1587 11.6829 65.5532 11.6829C66.0777 11.6829 66.6327 11.6073 67.0521 11.2923C67.1393 11.2413 67.2123 11.1694 67.2647 11.083C67.3171 10.9967 67.3471 10.8987 67.3521 10.7979C67.3532 10.6494 67.2959 10.5065 67.1926 10.3999C67.0893 10.2933 66.9482 10.2315 66.7998 10.2279C66.6729 10.2289 66.5486 10.2654 66.4409 10.3329C66.1564 10.4543 65.8497 10.5155 65.5404 10.5123C65.1954 10.5123 64.4004 10.3741 64.4004 9.55286H67.1861C67.3286 9.55013 67.4645 9.49241 67.5655 9.39177C67.6664 9.29113 67.7245 9.15536 67.7277 9.01286ZM64.3971 8.66464C64.3971 8.08071 65.0132 7.88625 65.3871 7.88625C65.7616 7.88625 66.3771 8.08071 66.3921 8.66464H64.3971ZM83.2018 6.64393C83.1316 6.64396 83.0622 6.65801 82.9975 6.68524C82.9328 6.71247 82.8742 6.75233 82.8252 6.8025C82.7761 6.85277 82.7377 6.9124 82.7122 6.97784C82.6867 7.04329 82.6747 7.11319 82.6768 7.18339L82.6468 7.34946C82.4492 7.11511 82.2038 6.92563 81.9272 6.79371C81.6505 6.66178 81.3488 6.59044 81.0423 6.58447C79.6923 6.58447 78.7173 7.72339 78.7173 9.10232C78.7173 10.4818 79.6837 11.6679 80.9662 11.6679C81.5062 11.6679 82.3623 11.4273 82.6312 10.9029L82.6618 11.0673C82.6609 11.1378 82.6743 11.2078 82.7012 11.273C82.728 11.3382 82.7679 11.3972 82.8182 11.4466C82.8687 11.496 82.9288 11.5345 82.9948 11.5597C83.0608 11.585 83.1312 11.5964 83.2018 11.5934C83.3086 11.5933 83.413 11.5617 83.5019 11.5024C83.5907 11.4431 83.66 11.3588 83.7011 11.2602C83.7279 11.1948 83.7418 11.1246 83.7418 11.0534V7.18768C83.7395 7.04483 83.6819 6.90843 83.5813 6.80706C83.4806 6.7057 83.3446 6.64723 83.2018 6.64393ZM81.1913 10.4379C80.5923 10.4379 80.0968 9.85393 80.0968 9.13286C80.0968 8.41232 80.5773 7.89 81.1913 7.89C81.8057 7.89 82.3318 8.38447 82.3318 9.13286C82.3318 9.88125 81.81 10.4379 81.1945 10.4379H81.1913ZM87.6734 6.59411C87.3728 6.58862 87.0743 6.64429 86.7959 6.75775C86.5175 6.87121 86.265 7.04008 86.0539 7.25411C86.0539 6.91018 85.8289 6.65464 85.5295 6.65464C85.4584 6.65443 85.3881 6.66825 85.3224 6.6953C85.2567 6.72235 85.197 6.7621 85.1468 6.81227C85.0965 6.86244 85.0566 6.92205 85.0295 6.98766C85.0023 7.05328 84.9883 7.12362 84.9884 7.19464V13.0141C84.9888 13.197 85.0616 13.3722 85.191 13.5015C85.3203 13.6309 85.4955 13.7037 85.6784 13.7041C85.8614 13.704 86.0369 13.6312 86.1663 13.5019C86.2958 13.3725 86.3686 13.1971 86.3689 13.0141V11.2634C86.7429 11.5473 87.3434 11.6679 87.7495 11.6775C89.0545 11.6775 90 10.493 90 9.1125C90 7.73143 89.0089 6.59411 87.6734 6.59411ZM87.5079 10.4336C86.8934 10.4336 86.3689 9.88179 86.3689 9.12911C86.3689 8.37643 86.8934 7.88625 87.5079 7.88625C88.1223 7.88625 88.6029 8.38072 88.6029 9.12911C88.6029 9.85339 88.1239 10.4379 87.5079 10.4379V10.4336Z" fill="currentColor"></path></g><defs><clipPath id="clip0_2324_59323"><rect width="90" height="15.5357"></rect></clipPath></defs></svg>