<svg width="113" height="16" viewBox="0 0 113 16" fill="currentColor" xmlns="http://www.w3.org/2000/svg"><g clip-path="url(#clip0_2269_68440)"><path d="M106.974 -7.39789e-05C103.229 -7.39789e-05 101.003 2.66157 101.003 5.89357C101.003 9.12463 103.229 11.7872 106.974 11.7872C110.72 11.7872 112.941 9.14251 112.941 5.89357C112.941 2.64369 110.716 -7.39789e-05 106.974 -7.39789e-05ZM106.974 10.3811C104.294 10.3811 102.619 8.44228 102.619 5.89357C102.619 3.34487 104.294 1.40604 106.974 1.40604C109.655 1.40604 111.326 3.36651 111.326 5.89357C111.326 8.41969 109.652 10.3802 106.974 10.3802V10.3811ZM54.0461 1.40604C56.1355 1.40604 57.6198 2.85263 57.7148 4.35475H59.2753C59.1793 2.16651 57.2781 -0.00101516 54.1233 -0.00101516C50.3012 -0.00101516 48.1346 2.67946 48.1346 5.91051C48.1346 9.08698 50.1864 11.7863 54.2184 11.7863C56.6315 11.7863 58.4009 10.6813 59.2753 9.59804L58.2475 8.67475C57.7215 9.21072 57.095 9.63772 56.4038 9.93132C55.7126 10.2249 54.9702 10.3794 54.2193 10.3858C51.1962 10.3858 49.7675 8.40651 49.7675 5.9171C49.7675 3.25546 51.424 1.41169 54.0461 1.41169M71.4005 0.381102V5.15193C71.4005 8.55522 69.3666 10.3839 67.0918 10.3839C65.2113 10.3839 64.1835 9.0324 64.1835 6.76981V0.382044H60.4913V1.71193H62.6202V7.15004C62.6202 9.8484 64.1591 11.7882 66.9722 11.7882C69.1605 11.7882 70.6409 10.6644 71.3826 9.06722V11.406H72.9431V0.381102H71.4005ZM99.0513 0.381102L95.0504 9.82957L90.9638 0.381102H87.9144V1.71193H89.8532L94.2042 11.806C93.5576 13.3853 92.5148 14.3547 91.2038 14.3547C90.7571 14.3746 90.3125 14.2823 89.9106 14.0865V15.5115C90.3977 15.6882 90.9135 15.7728 91.4315 15.7609C93.312 15.7609 94.6042 14.6559 95.4965 12.6032L100.728 0.381102H99.0513ZM80.2663 2.37546V0.382044H75.5887V1.71098H78.7059V10.0762H75.5878V11.4051H84.0678V10.0762H80.2654V4.90534C80.5741 3.09828 82.1647 1.42769 84.1252 1.42769C84.8202 1.40149 85.5127 1.5244 86.1562 1.78816V0.382044C85.6333 0.117112 85.0529 -0.0144752 84.4668 -0.00101516C83.6217 0.00119453 82.7913 0.220893 82.0556 0.636937C81.32 1.05298 80.7038 1.65137 80.2663 2.37451V2.37546ZM41.1388 2.37546V0.381102H36.4574V1.71193H39.5755V10.0771H36.4574V11.406H44.9365V10.0771H41.1388V4.90534C41.4249 3.09828 43.04 1.42769 45.0165 1.42769C45.7065 1.40309 46.3938 1.52598 47.0325 1.78816V0.381102C46.5015 0.11718 45.9142 -0.0136381 45.3214 -7.39789e-05C44.4801 0.00928772 43.655 0.232173 42.9234 0.647679C42.1918 1.06319 41.5778 1.6577 41.1388 2.37546ZM19.8071 10.0762V4.4884C19.8071 1.96134 18.1911 0.000867198 15.76 0.000867198C13.3289 0.000867198 12.1656 1.53969 11.6151 2.77075C11.3587 1.95735 10.8467 1.24838 10.1553 0.749185C9.46377 0.249991 8.62969 -0.0127781 7.77694 -7.39789e-05C5.62259 -7.39789e-05 4.48753 1.2564 3.87765 2.39898V0.382044H0V1.71193H2.32094V11.406H3.87765V4.92416C4.032 3.65075 5.10871 1.42957 7.49176 1.42957C9.22165 1.42957 10.2984 2.39898 10.2984 4.94393V11.407H11.856V4.86487C12.0649 3.63381 13.0871 1.42769 15.4504 1.42769C17.1981 1.42769 18.2456 2.3971 18.2456 4.94204V11.4051H21.5718V10.0752H19.808L19.8071 10.0762ZM34.6108 5.89357C34.6108 2.64369 32.48 -0.00101516 28.8132 -0.00101516C25.1445 -0.00101516 22.9374 2.67946 22.9374 5.91051C22.9374 9.21969 25.0673 11.7863 29.0221 11.7863C31.4842 11.7863 33.2414 10.5891 33.9464 9.6564L32.9205 8.7331C31.9699 9.76087 30.6588 10.3707 28.9205 10.3707C26.4584 10.3707 24.7934 8.7331 24.6118 6.3971H34.5882C34.6041 6.22943 34.6114 6.06105 34.6099 5.89263L34.6108 5.89357ZM24.6306 5.07475C24.9374 2.9204 26.5506 1.40604 28.8122 1.40604C29.8441 1.36925 30.8509 1.72891 31.626 2.41117C32.401 3.09344 32.8854 4.04653 32.9798 5.07475H24.6306Z" fill="currentColor"></path></g><defs><clipPath id="clip0_2269_68440"><rect width="112.941" height="16" fill="currentColor"></rect></clipPath></defs></svg>