<svg width="24" height="25" viewBox="0 0 24 25" fill="none" xmlns="http://www.w3.org/2000/svg"><path fill-rule="evenodd" clip-rule="evenodd" d="M3.90478 2.80541C3.67978 3.04691 3.55078 3.41891 3.55078 3.90241V21.0944C3.55078 21.5779 3.67978 21.9499 3.91328 22.1829L3.97428 22.2344L13.6073 12.6014V12.3849L3.96578 2.75391L3.90478 2.80541Z" fill="url(#paint0_linear_508_4739)"></path><path fill-rule="evenodd" clip-rule="evenodd" d="M16.8107 15.8249L13.5977 12.6109V12.3859L16.8117 9.17188L16.8812 9.21488L20.6827 11.3754C21.7712 11.9889 21.7712 12.9999 20.6827 13.6219L16.8812 15.7824C16.8802 15.7819 16.8107 15.8249 16.8107 15.8249Z" fill="url(#paint1_linear_508_4739)"></path><path fill-rule="evenodd" clip-rule="evenodd" d="M16.8808 15.7796L13.5983 12.4961L3.9043 22.1901C4.2583 22.5706 4.8543 22.6136 5.5203 22.2416L16.8808 15.7796Z" fill="url(#paint2_linear_508_4739)"></path><path fill-rule="evenodd" clip-rule="evenodd" d="M16.8808 9.21443L5.5203 2.76093C4.8553 2.38043 4.2583 2.43193 3.9043 2.81243L13.5973 12.4969L16.8808 9.21443Z" fill="url(#paint3_linear_508_4739)"></path><defs><linearGradient id="paint0_linear_508_4739" x1="19.3463" y1="-2.89542" x2="-1.44208" y2="2.64757" gradientUnits="userSpaceOnUse"><stop stop-color="#047ED6"></stop><stop offset="1" stop-color="#50E6FF"></stop></linearGradient><linearGradient id="paint1_linear_508_4739" x1="22.1004" y1="12.4976" x2="11.323" y2="12.4976" gradientUnits="userSpaceOnUse"><stop stop-color="#FFDA1C"></stop><stop offset="1" stop-color="#FEB705"></stop></linearGradient><linearGradient id="paint2_linear_508_4739" x1="15.0931" y1="14.2804" x2="2.70744" y2="35.1298" gradientUnits="userSpaceOnUse"><stop stop-color="#D9414F"></stop><stop offset="1" stop-color="#8C193F"></stop></linearGradient><linearGradient id="paint3_linear_508_4739" x1="1.46243" y1="-2.91676" x2="6.98772" y2="6.39583" gradientUnits="userSpaceOnUse"><stop stop-color="#33C481"></stop><stop offset="1" stop-color="#61E3A7"></stop></linearGradient></defs></svg>