<svg width="410" height="368" viewBox="0 0 410 368" fill="none" xmlns="http://www.w3.org/2000/svg" class="download_vector"><path fill-rule="evenodd" clip-rule="evenodd" d="M358.487 54.6464C304.967 203.388 278.179 277.731 278.179 277.731C273.59 290.236 266.649 294.653 257.413 290.867C207.508 272.798 182.555 263.792 182.555 263.792C174.754 258.686 173.492 250.483 178.712 239.126C232.633 90.3262 259.651 15.9265 259.651 15.9265C264.297 7.03523 270.607 3.99501 278.466 6.69107C280.359 7.49415 281.907 8.12515 283.055 8.64142C285.005 9.73131 285.693 11.7964 285.234 14.9513C284.718 18.221 286.439 20.6303 290.397 22.2938C317.472 32.2176 331.01 37.2081 331.01 37.2081C334.567 38.5275 337.492 37.9538 339.787 35.3725C341.852 32.8485 343.917 31.5866 345.982 31.5866C347.703 31.5866 352.693 33.8811 354.185 34.7989C361.126 39.0437 360.781 47.6482 358.487 54.6464Z" fill="white"></path><path d="M203.207 265C203.494 265.057 203.953 265.229 204.412 265.344C206.247 266.033 208.083 266.721 209.919 267.409C213.418 268.729 216.859 269.991 220.359 271.31C223.743 272.572 227.127 273.834 230.569 275.096C233.093 276.014 235.56 276.989 238.084 277.907C238.543 278.079 239.002 278.193 239.346 278.538C239.805 278.882 239.69 279.455 239.174 279.628C238.887 279.742 238.6 279.742 238.371 279.628C237.797 279.455 237.281 279.283 236.764 279.111C230.627 276.817 224.431 274.465 218.294 272.17C213.475 270.392 208.657 268.614 203.838 266.778C203.551 266.664 203.207 266.549 202.92 266.377C202.519 266.147 202.404 265.746 202.519 265.344C202.461 265.172 202.748 265 203.207 265Z" fill="#FCFCFC"></path><path d="M356.193 47.4786C356.25 47.4786 356.078 47.4786 355.849 47.3639C354.587 46.9623 353.325 46.5034 352.063 46.1019C351.776 45.9872 351.432 45.8151 351.202 45.643C350.801 45.3562 350.571 44.9546 350.743 44.4957C350.973 43.9221 351.145 43.2911 351.489 42.7748C351.833 42.2012 352.407 41.9718 353.153 42.2012C354.587 42.6601 356.021 43.1764 357.455 43.6926C357.914 43.8647 358.315 44.1515 358.373 44.6104C358.487 45.1267 358.43 45.643 358.659 46.1019C358.717 46.274 358.602 46.4461 358.487 46.5034C358.028 46.7329 357.627 46.9623 357.283 47.2491C357.053 47.5359 356.766 47.5933 356.193 47.4786Z" fill="#D2D2D2"></path><path d="M346.27 40.8221C345.925 40.8794 345.639 40.8794 345.294 40.9368C345.122 40.9368 345.008 40.822 344.95 40.7073C344.836 40.5352 344.893 40.3631 345.065 40.3058C345.409 40.0763 345.868 40.019 346.27 40.019C347.474 39.9616 348.736 40.65 349.31 41.6825C349.367 41.7972 349.367 41.9119 349.367 42.0267C349.367 42.1414 349.023 42.3135 348.908 42.1988C348.679 42.0267 348.507 41.7972 348.335 41.6251C347.646 41.0515 347.13 40.8221 346.27 40.8221Z" fill="#5F5F5F"></path><path d="M341.22 42.2567C341.106 42.1994 340.991 42.142 340.934 42.0273C340.876 41.8552 340.876 41.6831 340.934 41.511C341.22 40.7653 341.507 40.0196 341.794 39.2739C341.851 39.1591 341.909 39.0444 342.024 38.987C342.138 38.9297 342.31 38.9297 342.425 38.9297C342.54 38.9871 342.597 39.1018 342.655 39.2165C342.712 39.2739 342.655 39.3886 342.655 39.4459C342.368 40.249 342.024 41.1095 341.737 41.9126C341.622 42.142 341.45 42.1994 341.22 42.2567Z" fill="#5F5F5F"></path><path d="M341.05 39.3887C341.05 39.3887 341.107 39.5034 341.05 39.5608C340.821 40.2491 340.534 40.8801 340.304 41.5111C340.247 41.7406 340.017 41.8553 339.731 41.7406C339.559 41.6832 339.444 41.5111 339.501 41.3391C339.673 40.5933 339.903 39.8476 340.362 39.1592C340.419 39.1019 340.591 39.0445 340.706 39.1019C340.878 39.0445 340.993 39.1593 341.05 39.3887Z" fill="#5E5E5E"></path><path d="M346.498 41.4531C347.129 41.5105 347.76 41.7973 348.104 42.4283C348.219 42.6004 348.219 42.7725 348.047 42.8872C347.875 43.0019 347.703 43.0019 347.531 42.8872C347.014 42.4283 346.441 42.1989 345.752 42.2562C345.58 42.2562 345.408 42.1415 345.351 41.9694C345.293 41.7973 345.408 41.6826 345.58 41.5679C345.867 41.5105 346.097 41.4531 346.498 41.4531Z" fill="#6A6A6A"></path><path d="M338.926 39.5039C339.041 39.6186 339.27 39.676 339.27 39.7333C339.328 40.307 339.156 40.7659 338.754 41.1674C338.697 41.2248 338.467 41.2248 338.353 41.1674C338.238 41.11 338.123 40.9953 338.123 40.8806C338.123 40.4217 338.295 40.0202 338.582 39.6186C338.639 39.6186 338.754 39.5613 338.926 39.5039Z" fill="#666666"></path><path d="M337.665 40.0225C337.723 40.424 337.493 40.7682 337.149 40.8255C337.034 40.8255 336.862 40.7682 336.805 40.6535C336.575 40.424 336.69 40.0225 337.034 39.793C337.149 39.7357 337.321 39.7357 337.436 39.793C337.493 39.8504 337.608 39.9651 337.665 40.0225Z" fill="#707070"></path><path d="M346.383 43.8627C346.096 43.8627 345.924 43.6906 345.81 43.4038C345.752 43.1743 345.867 42.9449 346.096 42.9449C346.498 42.8875 346.957 43.1743 346.957 43.4611C346.957 43.6906 346.613 43.748 346.383 43.8627Z" fill="#606060"></path><path d="M228.158 259.432C228.101 259.432 228.044 259.375 227.986 259.375H228.044C228.101 259.432 228.101 259.432 228.158 259.432Z" fill="white"></path><path d="M357.684 45.1266C357.57 45.5855 357.398 46.1018 357.111 46.5607C356.996 46.7327 356.767 46.8475 356.537 46.8475C356.365 46.8475 356.136 46.7901 355.963 46.7327C354.701 46.3312 353.439 45.8723 352.235 45.4134C351.489 45.1266 351.374 44.8971 351.604 44.2088C351.604 44.1514 351.604 44.1514 351.661 44.0941C352.063 42.7747 352.292 42.66 353.841 43.1762C354.988 43.5778 356.078 43.9793 357.168 44.3235C357.512 44.4382 357.684 44.6677 357.684 45.1266Z" fill="#505050"></path><path d="M272.617 13.4623C272.617 14.1506 272.33 14.839 271.699 15.3552C271.068 15.8715 270.208 15.6994 269.749 15.0684C269.634 14.8963 269.577 14.7243 269.691 14.6095C269.864 14.4374 270.036 14.5522 270.15 14.6669C270.265 14.7816 270.322 14.8964 270.437 14.9537C270.724 15.1258 271.011 15.1258 271.183 14.8963C271.298 14.839 271.298 14.6669 271.355 14.6095C271.355 14.5522 271.24 14.4948 271.183 14.4375C271.126 14.3801 271.011 14.4375 270.896 14.3801C270.093 14.0359 269.806 13.5196 270.036 12.8886C270.265 12.2577 270.896 11.9708 271.584 12.1429C272.215 12.2003 272.56 12.6592 272.617 13.4623Z" fill="#626262"></path><path d="M276.863 14.2673C276.805 14.4393 276.69 14.7261 276.633 15.013C276.518 15.4145 276.232 15.816 276.404 16.3323C276.576 16.7912 276.002 16.7912 275.773 17.0207C275.543 17.2501 275.314 17.1927 275.256 16.9059C275.199 16.5044 274.97 16.2749 274.568 16.1602C274.453 16.1029 274.281 16.0455 274.166 15.9881C273.88 15.816 273.822 15.5292 274.052 15.3571C274.568 14.8982 275.084 14.4393 275.658 14.0378C275.83 13.9231 276.059 13.8083 276.232 13.751C276.518 13.6936 276.863 13.9231 276.863 14.2673Z" fill="#636363"></path><path d="M277.78 17.8786C277.665 17.8212 277.551 17.7065 277.551 17.5918C277.608 17.305 277.723 17.0182 277.838 16.7313C277.952 16.4445 278.067 16.1004 278.182 15.8135C278.239 15.5841 278.182 15.412 277.895 15.2973C277.551 15.1825 277.608 14.9531 277.838 14.8384C278.01 14.7236 278.239 14.6663 278.469 14.6089C278.927 14.5515 279.272 14.8384 279.1 15.1825C278.813 16.043 278.411 16.9034 278.067 17.7065C278.067 17.8786 277.952 17.936 277.78 17.8786Z" fill="#6C6C6C"></path><path d="M272.674 15.4124C272.731 15.2403 272.846 15.1255 273.075 15.1829C273.247 15.1829 273.362 15.2976 273.362 15.4697C273.362 15.6418 273.247 15.8139 273.018 15.8139C272.789 15.7565 272.674 15.5844 272.674 15.4124Z" fill="#7C7C7C"></path><path d="M273.936 13.7504C273.936 13.8651 273.879 13.9799 273.649 13.9799C273.477 13.9799 273.362 13.8651 273.362 13.7504C273.305 13.5783 273.42 13.4062 273.649 13.4062C273.821 13.4063 273.936 13.521 273.936 13.7504Z" fill="#5B5B5B"></path><path d="M271.239 13.8047C270.952 13.8047 270.723 13.5178 270.723 13.2884C270.723 12.8868 271.124 12.5427 271.526 12.6C271.755 12.6574 271.985 12.9442 271.985 13.1737C271.927 13.5752 271.64 13.862 271.239 13.8047Z" fill="#E5E5E5"></path><path d="M275.943 14.6094C276.058 15.0683 275.828 15.4125 275.599 15.7566C275.427 15.9287 275.197 15.814 274.968 15.6993C274.796 15.5846 274.853 15.4125 274.968 15.2977C275.255 15.0109 275.484 14.7241 275.943 14.6094Z" fill="#DCDCDC"></path><path d="M92.4955 273.603L163.683 299.302C168.673 301.08 166.379 304.923 158.578 307.734L98.0597 329.761C90.2584 332.572 79.8183 333.433 74.8278 331.654L3.64041 305.956C-1.35016 304.178 0.944349 300.334 8.7457 297.523L69.3209 275.496C77.0075 272.628 87.505 271.768 92.4955 273.603Z" fill="#FEEEAE" stroke="black" stroke-miterlimit="2.6131"></path><path fill-rule="evenodd" clip-rule="evenodd" d="M186.341 307.964L257.529 333.663C262.519 335.441 260.225 339.285 252.423 342.095L191.848 364.123C184.047 366.934 173.607 367.794 168.616 366.016L97.4861 340.317C92.4955 338.539 94.7901 334.696 102.591 331.885L163.167 309.857C170.911 306.989 181.351 306.186 186.341 307.964Z" fill="white"></path><path d="M186.341 307.964L257.529 333.663C262.519 335.441 260.225 339.285 252.423 342.095L191.848 364.123C184.047 366.934 173.607 367.794 168.616 366.016L97.4861 340.317C92.4955 338.539 94.7901 334.696 102.591 331.885L163.167 309.857C170.911 306.989 181.351 306.186 186.341 307.964Z" stroke="#231F20" stroke-width="1.5001" stroke-miterlimit="2.6131"></path><path d="M176.246 360.854C181.03 360.854 184.908 359.416 184.908 357.642C184.908 355.868 181.03 354.43 176.246 354.43C171.462 354.43 167.584 355.868 167.584 357.642C167.584 359.416 171.462 360.854 176.246 360.854Z" fill="white"></path><path d="M176.246 360.854C181.03 360.854 184.908 359.416 184.908 357.642C184.908 355.868 181.03 354.43 176.246 354.43C171.462 354.43 167.584 355.868 167.584 357.642C167.584 359.416 171.462 360.854 176.246 360.854Z" stroke="#231F20" stroke-width="0.75" stroke-miterlimit="2.6131"></path><path fill-rule="evenodd" clip-rule="evenodd" d="M176.36 347.828C173.55 347.885 171.312 350.065 171.312 352.761C171.312 354.31 171.37 355.916 171.37 357.522C171.312 358.899 174.697 359.186 176.36 359.186C178.024 359.186 181.408 358.899 181.351 357.522C181.351 355.916 181.408 354.31 181.408 352.761C181.351 350.123 179.114 347.885 176.36 347.828Z" fill="#FCD535"></path><path d="M176.36 347.828C173.55 347.885 171.312 350.065 171.312 352.761C171.312 354.31 171.37 355.916 171.37 357.522C171.312 358.899 174.697 359.186 176.36 359.186C178.024 359.186 181.408 358.899 181.351 357.522C181.351 355.916 181.408 354.31 181.408 352.761C181.351 350.123 179.114 347.885 176.36 347.828Z" stroke="#231F20" stroke-width="0.75" stroke-miterlimit="2.6131"></path><path fill-rule="evenodd" clip-rule="evenodd" d="M178.424 351.789C179.228 351.789 179.916 352.477 179.916 353.28C179.916 354.084 179.228 354.772 178.424 354.772C177.621 354.772 176.933 354.084 176.933 353.28C176.876 352.42 177.564 351.789 178.424 351.789Z" fill="white"></path><path d="M73.3945 280.657C75.9759 282.436 79.1882 282.722 82.9741 281.461C90.2592 278.937 93.8731 277.617 93.8731 277.617" stroke="#231F20" stroke-width="0.5" stroke-miterlimit="2.6131"></path><path fill-rule="evenodd" clip-rule="evenodd" d="M80.2764 303.087C76.9494 303.833 74.6549 303.316 73.3929 301.595C73.1634 304.636 76.261 305.439 79.3012 305.037C80.2764 304.922 80.9074 304.636 81.8252 304.291C88.3646 301.94 91.3475 300.907 93.011 300.276C94.1582 299.817 93.9288 299.473 93.9288 298.211C93.9288 298.211 89.3398 299.817 80.2764 303.087Z" fill="#231F20"></path><path d="M80.2764 303.087C76.9494 303.833 74.6549 303.316 73.3929 301.595C73.1634 304.636 76.261 305.439 79.3012 305.037C80.2764 304.922 80.9074 304.636 81.8252 304.291C88.3646 301.94 91.3475 300.907 93.011 300.276C94.1582 299.817 93.9288 299.473 93.9288 298.211C93.9288 298.211 89.3398 299.817 80.2764 303.087Z" stroke="#231F20" stroke-width="0.5" stroke-miterlimit="2.6131"></path><path fill-rule="evenodd" clip-rule="evenodd" d="M82.9741 281.46C79.1308 282.722 75.9759 282.435 73.3945 280.657V301.766C73.4519 302.799 76.32 303.831 79.3029 303.43C80.106 303.315 80.5649 303.143 81.3106 302.856C89.6856 299.758 93.8731 298.21 93.8731 298.21C93.8731 291.383 93.8731 284.5 93.8731 277.674C93.9305 277.616 90.2592 278.936 82.9741 281.46Z" fill="#D0D2D3"></path><path d="M82.9741 281.46C79.1308 282.722 75.9759 282.435 73.3945 280.657V301.766C73.4519 302.799 76.32 303.831 79.3029 303.43C80.106 303.315 80.5649 303.143 81.3106 302.856C89.6856 299.758 93.8731 298.21 93.8731 298.21C93.8731 291.383 93.8731 284.5 93.8731 277.674C93.9305 277.616 90.2592 278.936 82.9741 281.46Z" stroke="#231F20" stroke-width="0.75" stroke-miterlimit="2.6131" stroke-linejoin="round"></path><path d="M73.3945 280.66C75.9759 282.439 79.1882 282.726 82.9741 281.464C90.2592 278.94 93.8731 277.62 93.8731 277.62C93.7584 273.834 86.9322 275.268 84.5229 276.014C78.3851 277.792 74.7139 279.341 73.3945 280.66Z" fill="white" stroke="#231F20" stroke-miterlimit="2.6131"></path><path d="M228.961 284.617C252.594 293.164 264.411 297.466 264.411 297.466C273.761 300.678 284.89 295.401 287.07 285.994C299.976 249.625 306.458 231.441 306.458 231.441" stroke="#231F20" stroke-width="0.5" stroke-miterlimit="2.6131"></path><path fill-rule="evenodd" clip-rule="evenodd" d="M371.91 290.526L348.334 282.094L350.055 284.905C354.472 293.911 352.923 301.54 345.351 307.678C344.376 308.251 343.171 308.882 341.737 309.513C341.737 309.513 341.68 309.513 341.68 309.571C341.68 309.628 352.693 305.555 374.663 297.41C378.564 294.943 377.646 292.649 371.91 290.526Z" fill="#231F20"></path><path d="M228.961 284.616C216.628 280.257 210.49 278.02 210.49 278.02C206.532 288.23 204.524 293.335 204.524 293.335C204.008 295.573 204.467 297.236 205.958 298.269C210.49 300.162 214.391 301.653 217.718 302.743C220.127 303.259 221.905 302.628 223.052 300.85C223.798 298.9 224.372 297.236 224.831 295.859C227.412 288.058 228.789 284.329 228.961 284.616Z" stroke="#231F20" stroke-width="1.0001" stroke-miterlimit="2.6131"></path><path d="M278.525 1.99015L361.701 32.5646C370.191 35.6622 374.608 45.1844 371.51 53.6741L286.441 288.174C283.343 296.663 273.936 301.023 265.446 297.925L182.27 267.351C173.78 264.253 169.363 254.731 172.461 246.241L257.53 11.7992C260.57 3.30951 270.035 -1.10745 278.525 1.99015Z" stroke="#231F20" stroke-width="1.5001" stroke-miterlimit="2.6131"></path><path fill-rule="evenodd" clip-rule="evenodd" d="M306.918 231.672L286.382 288.232C283.284 296.721 273.877 301.081 265.387 297.983L240.319 288.748C236.935 287.486 232.977 286.052 228.789 284.56C228.789 284.56 228.789 284.675 228.56 285.077L225.348 294.542L225.003 295.402C225.003 295.402 224.831 295.918 224.889 295.918C273.819 313.529 298.485 322.649 298.485 322.649C323.668 313.242 335.484 308.194 335.484 308.194C343.63 305.613 349.079 299.819 348.735 294.886C348.563 289.494 346.441 285.536 340.303 275.899L319.824 242.227C316.44 237.236 312.31 233.507 306.918 231.672Z" fill="#231F20"></path><path fill-rule="evenodd" clip-rule="evenodd" d="M306.918 231.672C312.31 233.507 316.498 237.236 319.825 242.284L340.303 275.956C346.441 285.593 348.564 289.551 348.736 294.943C349.137 299.876 343.688 305.67 335.485 308.251C335.485 308.251 323.726 313.299 298.486 322.706C298.486 322.706 273.935 313.701 225.061 296.033C224.603 297.409 223.857 299.016 223.111 300.966C221.964 302.744 220.186 303.375 217.776 302.859C214.449 301.712 210.549 300.22 206.017 298.385C204.812 297.524 204.296 296.262 204.411 294.599C201.829 295.459 198.732 296.492 195.175 297.754C191.562 299.13 189.439 300.794 188.808 302.802C188.521 304.35 190.013 305.784 193.34 307.104C193.34 307.104 214.277 314.676 256.095 329.877C264.986 333.319 274.164 333.72 283.514 331.081C283.514 331.081 298.887 325.46 329.634 314.274C334.625 312.553 338.64 311.062 341.623 309.685C343.114 308.997 344.319 308.366 345.351 307.792C352.923 301.654 354.529 294.082 350.055 285.019L348.334 282.208L329.921 251.576C328.143 248.651 325.963 245.611 324.529 242.628C322.865 239.186 321.718 235.4 320.915 231.786C319.022 224.903 319.481 216.47 321.947 209.759C325.504 200.065 338.353 164.844 360.495 104.096C364.683 94.1727 365.027 86.4861 361.642 80.9219L357.226 93.1402C349.137 116.2 340.648 139.203 332.158 162.148L306.918 231.672Z" fill="#E5E6E7"></path><path d="M306.918 231.672C312.31 233.507 316.498 237.236 319.825 242.284L340.303 275.956C346.441 285.593 348.564 289.551 348.736 294.943C349.137 299.876 343.688 305.67 335.485 308.251C335.485 308.251 323.726 313.299 298.486 322.706C298.486 322.706 273.935 313.701 225.061 296.033C224.603 297.409 223.857 299.016 223.111 300.966C221.964 302.744 220.186 303.375 217.776 302.859C214.449 301.712 210.549 300.22 206.017 298.385C204.812 297.524 204.296 296.262 204.411 294.599C201.829 295.459 198.732 296.492 195.175 297.754C191.562 299.13 189.439 300.794 188.808 302.802C188.521 304.35 190.013 305.784 193.34 307.104C193.34 307.104 214.277 314.676 256.095 329.877C264.986 333.319 274.164 333.72 283.514 331.081C283.514 331.081 298.887 325.46 329.634 314.274C334.625 312.553 338.64 311.062 341.623 309.685C343.114 308.997 344.319 308.366 345.351 307.792C352.923 301.654 354.529 294.082 350.055 285.019L348.334 282.208L329.921 251.576C328.143 248.651 325.963 245.611 324.529 242.628C322.865 239.186 321.718 235.4 320.915 231.786C319.022 224.903 319.481 216.47 321.947 209.759C325.504 200.065 338.353 164.844 360.495 104.096C364.683 94.1727 365.027 86.4861 361.642 80.9219L357.226 93.1402C349.137 116.2 340.648 139.203 332.158 162.148L306.918 231.672Z" stroke="#231F20" stroke-width="1.5001" stroke-miterlimit="2.6131"></path><path fill-rule="evenodd" clip-rule="evenodd" d="M371.852 43.7501L363.534 41.5703C364.108 44.0943 364.108 46.733 363.477 49.3717L371.966 51.953C372.655 49.1996 372.597 46.3888 371.852 43.7501Z" fill="#FCD535"></path><path d="M371.852 43.7501L363.534 41.5703C364.108 44.0943 364.108 46.733 363.477 49.3717L371.966 51.953C372.655 49.1996 372.597 46.3888 371.852 43.7501Z" stroke="black" stroke-width="0.75" stroke-miterlimit="2.6131"></path><path fill-rule="evenodd" clip-rule="evenodd" d="M363.535 41.5671L371.853 43.7469C371.164 41.2803 369.902 38.9284 368.181 37.0354L361.068 35.7734C362.216 37.5517 363.076 39.5594 363.535 41.5671Z" fill="#231F20"></path><path d="M363.535 41.5671L371.853 43.7469C371.164 41.2803 369.902 38.9284 368.181 37.0354L361.068 35.7734C362.216 37.5517 363.076 39.5594 363.535 41.5671Z" stroke="black" stroke-width="0.75" stroke-miterlimit="2.6131"></path><path fill-rule="evenodd" clip-rule="evenodd" d="M361.068 35.7776L368.181 37.0396C366.46 35.0893 364.223 33.5404 361.641 32.6226L355.389 30.3281C357.741 31.7048 359.691 33.5978 361.068 35.7776Z" fill="#FCD535"></path><path d="M361.068 35.7776L368.181 37.0396C366.46 35.0893 364.223 33.5404 361.641 32.6226L355.389 30.3281C357.741 31.7048 359.691 33.5978 361.068 35.7776Z" stroke="#231F20" stroke-width="0.75" stroke-miterlimit="2.6131"></path><path fill-rule="evenodd" clip-rule="evenodd" d="M273.82 291.385L280.704 294.311L281.736 294.77C284.203 292.59 285.58 290.467 286.383 288.173L306.919 231.613L332.216 161.974L357.283 92.9669L361.7 80.7486L371.509 53.6733C371.739 53.0997 371.911 52.5261 372.026 51.9524L363.536 49.3711C363.364 50.0021 363.192 50.5757 363.02 51.2067L278.639 284.96C277.721 287.255 276.057 289.492 273.82 291.385Z" fill="#404041"></path><path d="M273.82 291.385L280.704 294.311L281.736 294.769C284.203 292.59 285.58 290.467 286.383 288.173L306.919 231.613L332.216 161.974L357.283 92.9669L361.7 80.7486L371.509 53.6733C371.739 53.0997 371.911 52.5261 372.026 51.9524L363.536 49.3711C363.364 50.0021 363.192 50.5757 363.02 51.2067L278.639 284.96C277.721 287.255 276.057 289.492 273.82 291.385Z" stroke="black" stroke-width="0.75" stroke-miterlimit="2.6131"></path><path fill-rule="evenodd" clip-rule="evenodd" d="M281.851 294.713L273.935 291.328C270.149 294.54 264.814 296.72 259.881 295.86C262.864 296.95 264.413 297.523 264.413 297.523C268.772 299.76 276.459 299.531 281.851 294.713Z" fill="#FCD535"></path><path d="M281.851 294.713L273.935 291.328C270.149 294.54 264.814 296.72 259.881 295.86C262.864 296.95 264.413 297.523 264.413 297.523C268.772 299.76 276.459 299.531 281.851 294.713Z" stroke="black" stroke-width="0.75" stroke-miterlimit="2.6131"></path><path fill-rule="evenodd" clip-rule="evenodd" d="M156.513 273.202C157.317 272.973 157.718 271.883 157.489 271.08C157.259 270.277 156.456 269.761 155.596 269.99L153.359 270.564C146.303 272.629 139.878 270.621 134.142 266.262L132.823 265.114C132.192 264.541 131.216 264.655 130.7 265.286C130.127 265.917 130.241 266.892 130.872 267.409C140.337 275.554 145.844 276.013 156.513 273.202Z" fill="white"></path><path fill-rule="evenodd" clip-rule="evenodd" d="M127.544 262.76C128.118 262.129 128.003 261.154 127.372 260.637L122.84 256.794C122.209 256.22 121.234 256.335 120.718 256.966C120.144 257.597 120.259 258.572 120.89 259.088L125.422 262.932C126.053 263.448 126.97 263.391 127.544 262.76Z" fill="white"></path><path d="M298.773 322.766C280.245 330.796 270.321 332.46 257.988 327.986" stroke="#231F20" stroke-width="0.75" stroke-miterlimit="2.6131"></path><path fill-rule="evenodd" clip-rule="evenodd" d="M279.384 355.289C280.761 355.347 282.08 355.404 283.515 355.461L287.186 355.519C288.046 355.519 288.792 354.83 288.792 353.97C288.792 353.109 288.104 352.364 287.243 352.364L283.342 352.306C282.138 352.364 280.876 352.421 279.499 352.306C275.885 352.134 271.698 351.503 266.937 350.299C265.789 350.012 264.642 349.725 263.495 349.381L261.028 348.75C260.168 348.52 259.307 349.037 259.078 349.897C258.848 350.758 259.365 351.618 260.225 351.847L262.864 352.536L266.65 353.511C266.937 353.568 267.281 353.626 267.568 353.74C271.239 354.486 275.197 355.06 279.384 355.289Z" fill="white"></path><path fill-rule="evenodd" clip-rule="evenodd" d="M259.019 349.895C259.249 349.034 260.109 348.518 260.97 348.748L263.436 349.379C264.641 349.723 265.788 350.01 266.878 350.296C271.639 351.444 275.827 352.132 279.441 352.304C280.817 352.361 282.079 352.361 283.284 352.304L287.185 352.361C288.045 352.361 288.791 353.107 288.733 353.968C288.733 354.828 287.988 355.574 287.127 355.516L283.456 355.459C282.079 355.459 280.703 355.402 279.326 355.287C275.138 355.057 271.18 354.484 267.452 353.738C267.165 353.681 266.821 353.623 266.534 353.509L262.748 352.534L260.109 351.845C259.306 351.616 258.79 350.755 259.019 349.895ZM206.934 315.362C207.565 321.099 209.687 325.458 213.359 328.384C221.676 335.153 234.353 334.349 240.147 342.495C241.007 343.585 241.983 344.56 243.073 345.421C245.195 347.141 247.776 348.403 250.817 349.379C252.767 350.01 253.857 350.411 255.692 351.214C267.222 356.262 281.678 357.868 298.198 355.516C307.663 353.795 316.554 351.099 324.929 347.428C366.46 332.284 387.225 324.713 387.225 324.713C397.838 319.894 404.492 314.789 407.245 309.511C411.318 303.087 409.597 294.826 402.541 288.172C399.501 285.017 392.273 280.658 378.392 275.438C360.035 268.669 345.695 263.678 335.369 260.523L339.155 266.833C367.435 277.388 381.604 282.665 381.604 282.665C395.715 287.541 403.287 293.966 404.32 301.939C404.606 307.733 398.411 313.584 385.791 319.378C342.081 335.382 321.316 343.011 321.316 343.011C301.927 351.845 281.792 353.337 263.436 348.403C255.119 345.478 250.931 343.986 250.931 343.986C250.3 343.814 249.727 343.585 249.153 343.298C246.629 342.151 244.564 340.258 243.015 337.619C240.95 334.407 234.353 331.539 223.397 328.269C217.317 325.688 213.531 322.074 212.269 317.37C211.982 316.223 211.81 315.018 211.81 313.814C211.81 311.863 212.154 309.741 212.9 307.446C213.932 304.234 214.735 302.341 214.907 301.882C213.531 301.366 212.097 300.85 210.548 300.219C208.196 304.349 206.934 308.307 206.762 311.921C206.704 312.552 206.762 313.24 206.762 313.871C206.877 314.387 206.934 314.903 206.934 315.362Z" fill="#231F20"></path><path fill-rule="evenodd" clip-rule="evenodd" d="M92.7258 258.287C97.4296 252.379 103.281 251.117 110.394 254.616C115.556 257.255 120.317 260.352 124.103 263.278C131.274 269.358 137.412 275.898 147.221 275.84C154.735 275.783 172.001 269.358 179 265.745C177.393 264.712 176.074 263.45 174.927 262.016C166.265 264.655 157.546 269.473 148.884 270.62C135.863 271.366 131.561 258.632 115.671 251.002C111.369 248.937 106.894 247.274 102.076 247.446C97.0854 247.618 93.07 249.568 90.0298 253.297C85.7275 258.001 82.9741 264.483 81.7695 272.858C81.4253 275.095 80.737 279.225 83.9493 279.626C85.4407 279.799 86.8174 278.823 86.9895 277.447L87.1042 276.816C87.9073 270.506 88.2515 263.45 92.7258 258.287Z" fill="#231F20"></path><path fill-rule="evenodd" clip-rule="evenodd" d="M156.513 273.202C145.844 276.013 140.394 275.554 130.872 267.466C130.241 266.892 130.184 265.975 130.7 265.286C131.216 264.598 132.191 264.598 132.88 265.114L134.199 266.204C139.878 270.621 146.36 272.571 153.416 270.506L155.653 269.933C156.456 269.703 157.316 270.219 157.546 271.022C157.661 271.883 157.316 272.973 156.513 273.202Z" fill="#FCD535"></path><path fill-rule="evenodd" clip-rule="evenodd" d="M127.544 262.762C126.97 263.393 126.052 263.451 125.421 262.934L120.89 259.034C120.259 258.46 120.201 257.542 120.718 256.911C121.291 256.28 122.209 256.223 122.897 256.739L127.429 260.64C128.003 261.156 128.06 262.074 127.544 262.762Z" fill="#FCD535"></path><path d="M225.921 283.527L219.496 301.023" stroke="#231F20" stroke-width="1.0001" stroke-miterlimit="2.6131" stroke-linejoin="round"></path><path fill-rule="evenodd" clip-rule="evenodd" d="M182.211 267.351L240.091 288.633L240.32 288.69C249.383 291.96 255.923 294.369 259.881 295.746C264.814 296.606 270.091 294.484 273.877 291.329C273.935 291.329 273.935 291.272 273.992 291.272C276.172 289.379 277.835 287.199 278.638 284.962L363.019 51.2079C363.249 50.6342 363.421 50.0033 363.536 49.3723C364.167 46.7336 364.167 44.0949 363.593 41.5709C363.134 39.5058 362.331 37.5555 361.184 35.7773C359.75 33.5975 357.857 31.7045 355.505 30.3278L278.581 2.0479C270.091 -1.0497 260.684 3.30988 257.586 11.7996L172.402 246.299C170.395 251.749 171.542 257.657 174.869 262.017C175.959 263.451 177.336 264.77 178.942 265.745C179.974 266.376 181.064 266.95 182.211 267.351ZM290.34 22.0675C317.416 31.9913 330.953 36.9245 330.953 36.9245C334.51 38.2439 337.435 37.6702 339.73 35.0889C341.795 32.5649 343.86 31.303 345.925 31.303C347.646 31.303 352.637 33.5975 354.128 34.5153C361.126 38.8175 360.725 47.4219 358.488 54.4202C304.968 203.162 278.18 277.562 278.18 277.562C273.591 290.067 266.65 294.484 257.357 290.755C207.451 272.686 182.498 263.623 182.498 263.623C174.697 258.517 173.435 250.314 178.655 238.899C232.576 90.0999 259.594 15.7003 259.594 15.7003C264.24 6.80901 270.55 3.76875 278.409 6.46481C280.302 7.26789 281.851 7.8989 282.998 8.41516C284.948 9.50506 285.637 11.5701 285.178 14.7251C284.719 18.0521 286.44 20.4614 290.34 22.0675Z" fill="#FCD535"></path><path d="M182.211 267.351L240.091 288.633L240.32 288.69C249.383 291.96 255.923 294.369 259.881 295.746C264.814 296.606 270.091 294.484 273.877 291.329C273.935 291.329 273.935 291.272 273.992 291.272C276.172 289.379 277.835 287.199 278.638 284.962L363.019 51.2079C363.249 50.6342 363.421 50.0033 363.536 49.3723C364.167 46.7336 364.167 44.0949 363.593 41.5709C363.134 39.5058 362.331 37.5555 361.184 35.7773C359.75 33.5975 357.857 31.7045 355.505 30.3278L278.581 2.0479C270.091 -1.0497 260.684 3.30988 257.586 11.7996L172.402 246.299C170.395 251.749 171.542 257.657 174.869 262.017C175.959 263.451 177.336 264.77 178.942 265.745C179.974 266.376 181.064 266.95 182.211 267.351ZM290.34 22.0675C317.416 31.9913 330.953 36.9245 330.953 36.9245C334.51 38.2439 337.435 37.6702 339.73 35.0889C341.795 32.5649 343.86 31.303 345.925 31.303C347.646 31.303 352.637 33.5975 354.128 34.5153C361.126 38.8175 360.725 47.4219 358.488 54.4202C304.968 203.162 278.18 277.562 278.18 277.562C273.591 290.067 266.65 294.484 257.357 290.755C207.451 272.686 182.498 263.623 182.498 263.623C174.697 258.517 173.435 250.314 178.655 238.899C232.576 90.0999 259.594 15.7003 259.594 15.7003C264.24 6.80901 270.55 3.76876 278.409 6.46481C280.302 7.26789 281.851 7.8989 282.998 8.41516C284.948 9.50506 285.637 11.5701 285.178 14.7251C284.719 18.0521 286.44 20.4614 290.34 22.0675Z" stroke="black" stroke-width="0.75" stroke-miterlimit="2.6131"></path><path d="M197.068 247.329C199.888 247.329 202.173 244.812 202.173 241.707C202.173 238.603 199.888 236.086 197.068 236.086C194.249 236.086 191.963 238.603 191.963 241.707C191.963 244.812 194.249 247.329 197.068 247.329Z" fill="#E5E6E7"></path><path d="M212.613 253.47C215.433 253.47 217.718 250.953 217.718 247.848C217.718 244.743 215.433 242.227 212.613 242.227C209.794 242.227 207.508 244.743 207.508 247.848C207.508 250.953 209.794 253.47 212.613 253.47Z" fill="#E5E6E7"></path><path d="M227.699 259.091C230.519 259.091 232.804 256.574 232.804 253.469C232.804 250.365 230.519 247.848 227.699 247.848C224.879 247.848 222.594 250.365 222.594 253.469C222.594 256.574 224.879 259.091 227.699 259.091Z" fill="#E5E6E7"></path><path d="M243.418 265.517C246.237 265.517 248.523 263 248.523 259.895C248.523 256.79 246.237 254.273 243.418 254.273C240.598 254.273 238.312 256.79 238.312 259.895C238.312 263 240.598 265.517 243.418 265.517Z" fill="#E5E6E7"></path><path d="M259.191 271.54C262.011 271.54 264.297 269.023 264.297 265.918C264.297 262.814 262.011 260.297 259.191 260.297C256.372 260.297 254.086 262.814 254.086 265.918C254.086 269.023 256.372 271.54 259.191 271.54Z" fill="#E5E6E7"></path><path d="M258.617 203.732C258.158 204.306 257.756 204.994 257.183 205.453C256.093 206.371 254.888 206.543 253.741 206.142C249.783 204.822 245.825 203.503 241.867 202.184C239.744 201.495 238.884 199.201 239.744 196.734C240.375 194.899 241.006 193.063 241.637 191.285C241.695 191.055 241.867 190.768 241.981 190.711C242.154 190.596 242.44 190.596 242.612 190.711C242.899 190.883 242.842 191.285 242.727 191.629C242.039 193.522 241.408 195.415 240.719 197.365C240.318 198.455 240.49 199.43 241.121 200.176C241.408 200.52 241.809 200.864 242.211 200.979C246.169 202.356 250.184 203.675 254.142 204.994C255.519 205.453 257.01 204.593 257.584 202.929C258.215 201.094 258.846 199.258 259.477 197.48C259.592 197.078 259.764 196.734 260.165 196.734C260.567 196.677 260.624 197.021 260.739 197.308C260.108 199.373 259.362 201.553 258.617 203.732Z" fill="#4F4F4F"></path><path d="M249.725 196.966C251.044 193.238 252.306 189.567 253.568 185.953C253.74 185.379 253.97 184.805 254.142 184.232C254.314 183.773 254.658 183.543 254.945 183.658C255.289 183.773 255.404 184.174 255.232 184.633C254.486 186.87 253.683 189.108 252.88 191.345C252.191 193.295 251.503 195.303 250.815 197.311C250.987 197.253 251.101 197.196 251.159 197.138C252.134 196.565 253.052 195.991 254.027 195.418C254.142 195.36 254.199 195.303 254.314 195.245C254.658 195.073 254.945 195.131 255.059 195.475C255.232 195.819 255.059 196.163 254.715 196.393C253.109 197.368 251.503 198.286 249.897 199.261C249.553 199.49 249.266 199.376 249.094 198.974C248.405 197.253 247.717 195.532 247.029 193.811C246.857 193.467 246.971 193.066 247.373 192.894C247.717 192.721 248.004 192.836 248.118 193.238C248.52 194.27 248.979 195.36 249.38 196.393C249.553 196.565 249.61 196.737 249.725 196.966Z" fill="#4F4F4F"></path><path d="M254.831 238.386L214.906 224.504C210.145 222.84 208.08 217.276 210.317 212.114C212.554 206.951 218.291 204.083 223.052 205.746L262.976 219.628C267.737 221.292 269.802 226.856 267.565 232.019C265.328 237.181 259.592 240.049 254.831 238.386Z" fill="#FCD535" stroke="black" stroke-miterlimit="2.6131"></path><path d="M226.551 217.904C226.379 218.363 226.092 218.765 225.805 219.109C225.519 219.453 225.174 219.683 224.773 219.855C224.371 220.027 223.97 220.142 223.568 220.199C223.167 220.199 222.708 220.142 222.249 220.027L220.012 219.281L222.708 213.086L224.945 213.832C225.404 214.004 225.748 214.176 226.035 214.463C226.322 214.749 226.551 215.094 226.666 215.438C226.781 215.782 226.838 216.184 226.838 216.642C226.838 216.987 226.723 217.446 226.551 217.904ZM225.289 217.503C225.404 217.159 225.519 216.872 225.576 216.585C225.633 216.298 225.576 216.011 225.519 215.782C225.461 215.553 225.346 215.323 225.174 215.151C225.002 214.979 224.773 214.864 224.486 214.749L223.453 214.405L221.618 218.593L222.65 218.937C222.937 219.052 223.167 219.052 223.453 219.052C223.683 219.052 223.97 218.937 224.199 218.822C224.429 218.708 224.658 218.535 224.83 218.306C225.002 218.077 225.174 217.79 225.289 217.503Z" fill="black"></path><path d="M229.649 217.388C229.936 217.503 230.222 217.618 230.395 217.847C230.624 218.019 230.739 218.249 230.853 218.535C230.968 218.822 230.968 219.052 230.968 219.396C230.968 219.683 230.853 220.027 230.681 220.371C230.509 220.715 230.337 221.002 230.108 221.289C229.878 221.518 229.649 221.748 229.362 221.862C229.075 221.977 228.788 222.092 228.502 222.092C228.215 222.092 227.928 222.092 227.584 221.977C227.297 221.862 227.01 221.69 226.781 221.518C226.551 221.346 226.436 221.117 226.322 220.83C226.207 220.543 226.207 220.256 226.207 219.97C226.207 219.625 226.322 219.339 226.494 218.994C226.666 218.65 226.838 218.363 227.067 218.077C227.297 217.847 227.526 217.618 227.813 217.503C228.1 217.388 228.387 217.273 228.674 217.273C229.075 217.273 229.362 217.331 229.649 217.388ZM228.1 221.059C228.387 221.174 228.674 221.117 228.96 220.945C229.19 220.773 229.419 220.428 229.649 219.97C229.821 219.511 229.936 219.166 229.878 218.88C229.821 218.593 229.649 218.421 229.362 218.306C229.018 218.191 228.731 218.249 228.502 218.421C228.272 218.593 228.043 218.937 227.813 219.396C227.641 219.855 227.526 220.256 227.584 220.486C227.584 220.773 227.756 220.945 228.1 221.059Z" fill="black"></path><path d="M238.252 220.486L235.04 224.444L234.179 224.157C234.122 224.157 234.122 224.1 234.065 224.042C234.065 223.985 234.065 223.928 234.065 223.87L234.409 221.232C234.409 221.117 234.466 221.06 234.466 220.945C234.466 220.83 234.524 220.773 234.524 220.658C234.466 220.715 234.409 220.83 234.351 220.887C234.294 220.945 234.237 221.06 234.179 221.117L232.459 223.239C232.344 223.354 232.229 223.411 232.114 223.354L231.254 223.067L231.885 218.191L232.745 218.478C232.803 218.478 232.86 218.536 232.917 218.593C232.975 218.65 232.975 218.708 232.975 218.765L232.516 221.117C232.459 221.289 232.459 221.404 232.401 221.576C232.344 221.691 232.344 221.863 232.286 221.977C232.401 221.863 232.459 221.748 232.573 221.633C232.688 221.518 232.745 221.404 232.86 221.289L234.409 219.281C234.466 219.224 234.524 219.167 234.581 219.167C234.638 219.167 234.696 219.167 234.81 219.167L235.269 219.339C235.327 219.339 235.384 219.396 235.441 219.453C235.499 219.511 235.499 219.568 235.499 219.625L235.097 222.035C235.097 222.207 235.04 222.322 235.04 222.494C235.04 222.666 234.982 222.78 234.982 222.953C235.04 222.838 235.155 222.723 235.212 222.608C235.269 222.494 235.384 222.379 235.499 222.207L236.99 220.199C237.048 220.142 237.105 220.084 237.162 220.084C237.22 220.084 237.277 220.084 237.392 220.084L238.252 220.486Z" fill="black"></path><path d="M239.516 221.519C239.631 221.462 239.746 221.405 239.861 221.347C239.975 221.29 240.09 221.29 240.205 221.233C240.319 221.233 240.434 221.233 240.606 221.233C240.721 221.233 240.893 221.29 241.008 221.347C241.237 221.405 241.409 221.519 241.524 221.691C241.639 221.806 241.753 221.978 241.811 222.208C241.868 222.437 241.868 222.609 241.868 222.839C241.811 223.068 241.753 223.298 241.639 223.527L240.434 226.338L239.344 225.936L240.549 223.126C240.664 222.896 240.664 222.667 240.664 222.495C240.606 222.322 240.492 222.208 240.262 222.15C240.09 222.093 239.975 222.093 239.803 222.093C239.631 222.093 239.459 222.15 239.287 222.265L237.91 225.42L236.82 225.018L238.713 220.602L239.402 220.831C239.516 220.888 239.574 221.003 239.574 221.118L239.516 221.519Z" fill="black"></path><path d="M245.193 220.601L242.44 226.968L241.35 226.566L244.103 220.199L245.193 220.601Z" fill="black"></path><path d="M247.086 223.469C247.373 223.584 247.66 223.699 247.832 223.928C248.061 224.1 248.176 224.33 248.291 224.617C248.406 224.903 248.406 225.133 248.406 225.477C248.406 225.764 248.291 226.108 248.119 226.452C247.947 226.796 247.775 227.083 247.545 227.37C247.316 227.657 247.086 227.829 246.799 227.944C246.513 228.058 246.226 228.173 245.939 228.173C245.652 228.173 245.365 228.173 245.021 228.058C244.734 227.944 244.448 227.771 244.218 227.599C243.989 227.427 243.874 227.198 243.759 226.911C243.645 226.624 243.645 226.337 243.645 226.051C243.645 225.706 243.759 225.42 243.931 225.075C244.103 224.731 244.276 224.444 244.505 224.158C244.734 223.928 244.964 223.699 245.251 223.584C245.537 223.469 245.824 223.355 246.111 223.355C246.455 223.297 246.742 223.355 247.086 223.469ZM245.48 227.14C245.767 227.255 246.054 227.198 246.341 227.026C246.57 226.854 246.8 226.509 247.029 226.051C247.201 225.592 247.316 225.248 247.258 224.961C247.201 224.674 247.029 224.502 246.742 224.387C246.398 224.272 246.111 224.33 245.882 224.502C245.652 224.674 245.423 225.018 245.193 225.477C245.021 225.936 244.907 226.337 244.964 226.567C244.964 226.854 245.136 227.026 245.48 227.14Z" fill="black"></path><path d="M249.382 225.073C249.727 224.901 250.071 224.844 250.415 224.844C250.759 224.844 251.103 224.901 251.447 225.016C251.677 225.073 251.906 225.245 252.021 225.36C252.193 225.532 252.308 225.704 252.365 225.876C252.423 226.048 252.48 226.278 252.423 226.507C252.423 226.737 252.365 226.966 252.251 227.253L251.046 230.006L250.53 229.834C250.415 229.777 250.358 229.777 250.3 229.72C250.243 229.662 250.243 229.605 250.243 229.49L250.3 229.203C250.128 229.261 250.013 229.318 249.899 229.375C249.784 229.433 249.669 229.433 249.497 229.433C249.325 229.433 249.268 229.433 249.096 229.433C248.981 229.433 248.809 229.375 248.694 229.318C248.522 229.261 248.35 229.146 248.235 229.089C248.12 228.974 248.006 228.859 247.948 228.744C247.891 228.63 247.834 228.458 247.891 228.286C247.891 228.113 247.948 227.941 248.006 227.712C248.063 227.54 248.178 227.425 248.35 227.253C248.522 227.081 248.694 227.024 248.923 226.966C249.153 226.909 249.44 226.851 249.841 226.909C250.243 226.966 250.587 227.024 251.046 227.196L251.161 226.966C251.275 226.679 251.333 226.45 251.275 226.278C251.218 226.106 251.103 225.991 250.874 225.934C250.702 225.876 250.587 225.876 250.472 225.876C250.358 225.876 250.243 225.876 250.128 225.934C250.013 225.934 249.956 225.991 249.841 225.991C249.727 225.991 249.669 225.991 249.612 225.991C249.554 225.991 249.497 225.934 249.44 225.876C249.382 225.819 249.382 225.762 249.382 225.704V225.073ZM250.759 227.827C250.472 227.769 250.243 227.712 250.071 227.655C249.899 227.597 249.727 227.655 249.612 227.655C249.497 227.655 249.382 227.712 249.325 227.769C249.268 227.827 249.21 227.884 249.153 227.999C249.096 228.171 249.096 228.286 249.153 228.4C249.21 228.515 249.325 228.572 249.497 228.63C249.669 228.687 249.841 228.687 250.013 228.687C250.185 228.687 250.358 228.572 250.53 228.515L250.759 227.827Z" fill="black"></path><path d="M258.272 225.191L255.519 231.558L254.831 231.328C254.716 231.271 254.659 231.156 254.659 231.042L254.716 230.64C254.601 230.697 254.486 230.755 254.314 230.812C254.2 230.87 254.085 230.87 253.913 230.927C253.798 230.927 253.626 230.927 253.511 230.927C253.397 230.927 253.224 230.87 253.11 230.812C252.88 230.755 252.708 230.64 252.594 230.468C252.479 230.296 252.364 230.124 252.307 229.837C252.249 229.608 252.249 229.321 252.307 229.034C252.364 228.747 252.479 228.403 252.594 228.059C252.708 227.715 252.938 227.428 253.11 227.198C253.339 226.969 253.569 226.739 253.798 226.567C254.028 226.395 254.314 226.338 254.544 226.28C254.831 226.223 255.06 226.281 255.347 226.338C255.576 226.395 255.748 226.51 255.863 226.625C255.978 226.739 256.093 226.911 256.15 227.084L257.125 224.789L258.272 225.191ZM255.806 227.944C255.748 227.772 255.691 227.657 255.576 227.542C255.462 227.428 255.347 227.37 255.232 227.313C255.117 227.256 254.945 227.256 254.831 227.256C254.716 227.256 254.544 227.313 254.429 227.428C254.314 227.542 254.2 227.657 254.028 227.829C253.913 228.001 253.798 228.173 253.683 228.46C253.569 228.69 253.511 228.919 253.454 229.091C253.397 229.263 253.397 229.435 253.397 229.55C253.397 229.665 253.454 229.78 253.511 229.837C253.569 229.894 253.683 229.952 253.798 230.009C253.97 230.066 254.2 230.066 254.314 230.066C254.486 230.009 254.659 229.952 254.831 229.837L255.806 227.944Z" fill="black"></path><path d="M348.392 104.267C347.245 103.866 346.614 102.604 347.073 101.457L352.178 87.5175C352.579 86.3702 353.899 85.7392 355.046 86.1407C356.193 86.5423 356.824 87.8043 356.365 88.9515L351.26 102.891C350.801 104.095 349.539 104.669 348.392 104.267Z" fill="#EDEDED" stroke="black" stroke-width="0.75" stroke-miterlimit="2.6131"></path><path fill="white"></path><path fill="black"></path><path d="M280.202 138.931C282.308 139.668 284.412 140.463 286.518 141.201C285.602 143.589 284.686 145.978 283.77 148.366C281.664 147.629 279.617 146.836 277.453 146.097C278.37 143.708 279.286 141.32 280.202 138.931ZM280.475 144.446C281.216 144.692 281.841 144.936 282.581 145.183C282.887 144.387 283.192 143.591 283.496 142.852C282.813 142.606 282.13 142.361 281.39 142.114C281.086 142.853 280.781 143.649 280.475 144.446Z" fill="white"></path><path d="M297.746 137.04C296.38 136.549 294.958 135.999 293.535 135.507C293.23 136.304 292.925 137.1 292.619 137.896C294.042 138.388 295.407 138.936 296.83 139.428C296.524 140.224 296.219 141.021 295.914 141.817C293.809 141.022 291.703 140.285 289.599 139.49C290.82 136.305 292.042 133.12 293.32 129.937C294.003 130.182 294.686 130.427 295.426 130.674C295.121 131.47 294.816 132.267 294.51 133.063C295.933 133.555 297.298 134.103 298.721 134.595C298.355 135.504 298.05 136.301 297.746 137.04Z" fill="white"></path><path d="M271.996 141.378C272.302 140.582 272.607 139.786 272.912 138.99C273.595 139.235 274.335 139.482 275.018 139.727C275.324 138.931 275.629 138.135 275.934 137.338C275.251 137.093 274.511 136.846 273.828 136.601C274.134 135.805 274.439 135.009 274.745 134.212C275.427 134.458 276.11 134.703 276.85 134.95C277.461 133.357 278.072 131.765 278.683 130.173C280.106 130.665 281.47 131.213 282.893 131.705C282.588 132.501 282.282 133.297 281.977 134.093C281.294 133.848 280.611 133.603 279.871 133.356C278.65 136.541 277.428 139.726 276.148 142.966C274.784 142.418 273.419 141.87 271.996 141.378Z" fill="white"></path><path d="M289.112 153.023C288.429 152.777 287.747 152.532 287.006 152.285C287.312 151.489 287.616 150.75 287.923 149.897C287.24 149.651 286.557 149.406 285.817 149.159C286.733 146.771 287.649 144.382 288.622 141.995C289.305 142.24 289.988 142.486 290.728 142.732C290.117 144.325 289.508 145.86 288.896 147.51C289.579 147.755 290.262 148 291.002 148.247C290.334 149.838 289.723 151.43 289.112 153.023Z" fill="white"></path><path d="M269.892 140.583C270.575 140.828 271.315 141.075 271.997 141.378C271.386 142.97 270.775 144.563 270.165 146.155C269.482 145.91 268.799 145.664 268.06 145.36C268.671 143.768 269.282 142.175 269.892 140.583Z" fill="white"></path><path d="M286.246 135.626C285.941 136.423 285.636 137.219 285.33 138.015C283.907 137.523 282.543 136.975 281.12 136.483C281.425 135.687 281.731 134.89 282.036 134.094C283.459 134.586 284.823 135.134 286.246 135.626Z" fill="white"></path><path d="M284.2 159.448C283.518 159.202 282.835 158.957 282.152 158.712C282.763 157.119 283.372 155.584 283.984 153.934C284.667 154.18 285.35 154.425 286.033 154.671C285.422 156.263 284.811 157.855 284.2 159.448Z" fill="white"></path></svg>